<?xml version="1.0" encoding="utf-8"?>
<!-- Generator: Adobe Illustrator 24.0.1, SVG Export Plug-In . SVG Version: 6.00 Build 0)  -->
<svg version="1.1" id="Слой_1" xmlns="http://www.w3.org/2000/svg" xmlns:xlink="http://www.w3.org/1999/xlink" x="0px" y="0px"
	 viewBox="0 0 171.8 28" style="enable-background:new 0 0 171.8 28;" xml:space="preserve">
<style type="text/css">
	.st0{fill:#FFFFFF;stroke:#FFCC00;stroke-width:4;stroke-miterlimit:10;}
	.st1{fill:#222222;}
	.st2{fill:#FFCC00;}
</style>
<path class="st0" d="M132.5,14c0,6.4-5.1,11.5-11.5,11.5s-11.5-5.1-11.5-11.5c0-6.4,5.2-11.5,11.5-11.5
	C127.3,2.5,132.5,7.6,132.5,14z"/>
<g>
	<path class="st1" d="M14,6c1.2,0.5,2.1,1.3,2.7,2.3c0.6,1,1,2.1,1,3.4s-0.3,2.5-1,3.4c-0.6,1-1.5,1.7-2.7,2.2
		c-1.2,0.5-2.5,0.8-4.1,0.8H6.8v4.6H1.9V5.3h8C11.5,5.3,12.9,5.5,14,6z M11.9,13.6c0.5-0.4,0.8-1.1,0.8-1.9c0-0.8-0.3-1.4-0.8-1.9
		s-1.3-0.7-2.3-0.7H6.8v5.1h2.8C10.6,14.3,11.4,14.1,11.9,13.6z"/>
	<path class="st1" d="M27.7,18.1H25v4.6h-5V5.2h8c1.6,0,3,0.3,4.1,0.8c1.2,0.5,2.1,1.3,2.7,2.3c0.6,1,1,2.1,1,3.4
		c0,1.3-0.3,2.4-0.9,3.3c-0.6,0.9-1.4,1.7-2.5,2.2l3.8,5.5h-5.3L27.7,18.1z M30.1,9.8c-0.5-0.4-1.3-0.7-2.3-0.7H25v5.1h2.8
		c1,0,1.8-0.2,2.3-0.7c0.5-0.4,0.8-1.1,0.8-1.9C30.8,10.9,30.6,10.3,30.1,9.8z"/>
	<path class="st1" d="M52.6,18.9v3.8h-14V5.2h13.7v3.8h-8.8V12h7.8v3.7h-7.8v3.2H52.6z"/>
	<path class="st1" d="M57.4,22.6c-1.3-0.4-2.4-0.8-3.2-1.4l1.6-3.6c0.8,0.5,1.7,0.9,2.7,1.2c1,0.3,2,0.5,3,0.5
		c1.9,0,2.8-0.5,2.8-1.4c0-0.5-0.3-0.9-0.8-1.1c-0.5-0.2-1.4-0.5-2.6-0.8c-1.3-0.3-2.4-0.6-3.3-0.9s-1.6-0.8-2.3-1.6
		c-0.6-0.7-1-1.7-1-2.9c0-1.1,0.3-2,0.9-2.9c0.6-0.9,1.5-1.5,2.6-2s2.6-0.8,4.3-0.8c1.2,0,2.3,0.1,3.4,0.4c1.1,0.3,2.1,0.6,2.9,1.1
		L67,10.1c-1.7-0.9-3.3-1.4-4.8-1.4c-1,0-1.7,0.1-2.2,0.4s-0.7,0.7-0.7,1.1s0.3,0.8,0.8,1.1c0.5,0.2,1.4,0.5,2.6,0.7
		c1.3,0.3,2.4,0.6,3.3,0.9s1.6,0.8,2.3,1.6c0.6,0.7,1,1.7,1,2.9c0,1.1-0.3,2-0.9,2.9c-0.6,0.9-1.5,1.5-2.6,2
		c-1.2,0.5-2.6,0.8-4.2,0.8C60.1,23.1,58.7,22.9,57.4,22.6z"/>
	<path class="st1" d="M73.6,22.6c-1.3-0.4-2.4-0.8-3.2-1.4l1.6-3.6c0.8,0.5,1.7,0.9,2.7,1.2s2.1,0.5,3.1,0.5c1.9,0,2.8-0.5,2.8-1.4
		c0-0.5-0.3-0.9-0.8-1.1c-0.5-0.2-1.4-0.5-2.6-0.8c-1.3-0.3-2.4-0.6-3.3-0.9s-1.6-0.8-2.3-1.6c-0.6-0.7-0.9-1.7-0.9-2.9
		c0-1.1,0.3-2,0.9-2.9c0.6-0.9,1.5-1.5,2.6-2s2.6-0.8,4.3-0.8c1.1,0,2.3,0.1,3.4,0.4c1.1,0.3,2.1,0.6,3,1.1l-1.5,3.7
		c-1.7-0.9-3.3-1.4-4.8-1.4c-1,0-1.7,0.1-2.2,0.4s-0.7,0.7-0.7,1.1s0.3,0.8,0.8,1.1s1.4,0.5,2.6,0.7c1.3,0.3,2.4,0.6,3.3,0.9
		s1.6,0.8,2.3,1.6c0.6,0.7,1,1.7,1,2.9c0,1.1-0.3,2-0.9,2.9c-0.6,0.9-1.5,1.5-2.6,2c-1.2,0.5-2.6,0.8-4.2,0.8
		C76.3,23.1,74.9,22.9,73.6,22.6z"/>
	<path class="st1" d="M99.4,19.4H92l-1.4,3.4h-5.1l7.7-17.5h4.9l7.8,17.5h-5.2L99.4,19.4z M98,15.7l-2.2-5.6l-2.2,5.6L98,15.7z"/>
	<path class="st1" d="M142.2,9.2h-5.4V5.2h15.7v3.9h-5.4v13.6h-4.9V9.2z"/>
	<path class="st1" d="M171.7,5.2l-7.5,17.5h-4.9l-7.5-17.5h5.4l4.8,11.4l4.9-11.4L171.7,5.2z"/>
</g>
<path class="st2" d="M127,14c0,3.3-2.7,6-6,6s-6-2.7-6-6c0-3.3,2.7-6,6-6S127,10.7,127,14z"/>
</svg>
